<svg width="163" height="101" viewBox="0 0 163 101" fill="none" xmlns="http://www.w3.org/2000/svg">
<mask id="mask0_1_6032" style="mask-type:luminance" maskUnits="userSpaceOnUse" x="0" y="0" width="163" height="100">
<rect width="163" height="100" fill="white"/>
</mask>
<g mask="url(#mask0_1_6032)">
</g>
<mask id="mask1_1_6032" style="mask-type:luminance" maskUnits="userSpaceOnUse" x="0" y="1" width="163" height="100">
<rect y="1" width="163" height="100" fill="white"/>
</mask>
<g mask="url(#mask1_1_6032)">
<path d="M-95.0246 132.111L67.8109 -30.7247" stroke="#DCE2E8" stroke-linecap="square"/>
<path d="M-85.0246 132.111L77.8109 -30.7247" stroke="#DCE2E8" stroke-linecap="square"/>
<path d="M-75.0246 132.111L87.8109 -30.7247" stroke="#DCE2E8" stroke-linecap="square"/>
<path d="M-65.0246 132.111L97.8109 -30.7247" stroke="#DCE2E8" stroke-linecap="square"/>
<path d="M-55.0246 132.111L107.811 -30.7247" stroke="#DCE2E8" stroke-linecap="square"/>
<path d="M-45.0246 132.111L117.811 -30.7247" stroke="#DCE2E8" stroke-linecap="square"/>
<path d="M-35.0246 132.111L127.811 -30.7247" stroke="#DCE2E8" stroke-linecap="square"/>
<path d="M-25.0246 132.111L137.811 -30.7247" stroke="#DCE2E8" stroke-linecap="square"/>
<path d="M-15.0246 132.111L147.811 -30.7247" stroke="#DCE2E8" stroke-linecap="square"/>
<path d="M-5.02462 132.111L157.811 -30.7247" stroke="#DCE2E8" stroke-linecap="square"/>
<path d="M4.97538 132.111L167.811 -30.7247" stroke="#DCE2E8" stroke-linecap="square"/>
<path d="M14.9754 132.111L177.811 -30.7247" stroke="#DCE2E8" stroke-linecap="square"/>
<path d="M24.9754 132.111L187.811 -30.7247" stroke="#DCE2E8" stroke-linecap="square"/>
<path d="M34.9754 132.111L197.811 -30.7247" stroke="#DCE2E8" stroke-linecap="square"/>
<path d="M44.9754 132.111L207.811 -30.7247" stroke="#DCE2E8" stroke-linecap="square"/>
<path d="M54.9754 132.111L217.811 -30.7247" stroke="#DCE2E8" stroke-linecap="square"/>
<path d="M64.9754 132.111L227.811 -30.7247" stroke="#DCE2E8" stroke-linecap="square"/>
<path d="M84.9754 132.111L247.811 -30.7247" stroke="#DCE2E8" stroke-linecap="square"/>
<path d="M94.9754 132.111L257.811 -30.7247" stroke="#DCE2E8" stroke-linecap="square"/>
<path d="M104.975 132.111L267.811 -30.7247" stroke="#DCE2E8" stroke-linecap="square"/>
<path d="M114.975 132.111L277.811 -30.7247" stroke="#DCE2E8" stroke-linecap="square"/>
<path d="M124.975 132.111L287.811 -30.7247" stroke="#DCE2E8" stroke-linecap="square"/>
<path d="M-125.025 132.111L37.8109 -30.7247" stroke="#DCE2E8" stroke-linecap="square"/>
<path d="M-115.025 132.111L47.8109 -30.7247" stroke="#DCE2E8" stroke-linecap="square"/>
<path d="M-105.025 132.111L57.8109 -30.7247" stroke="#DCE2E8" stroke-linecap="square"/>
<path d="M74.9754 132.111L237.811 -30.7247" stroke="#DCE2E8" stroke-linecap="square"/>
</g>
</svg>
